<svg xmlns="http://www.w3.org/2000/svg" width="11" height="19" viewBox="0 0 11 19">
    <path fill="#FFF" fill-rule="evenodd" stroke="#FFF" d="M2.703 9.54c.242.206.426.34.582.5 2.115 2.183 4.229 4.367 6.332 6.56.166.174.354.427.352.642-.002.244-.148.597-.336.701-.209.117-.538.024-.81-.016-.088-.014-.162-.148-.24-.229l-7.191-7.44C.873 9.721.87 9.362 1.38 8.833 3.795 6.33 6.211 3.83 8.628 1.33c.327-.339.697-.42 1.008-.227.315.195.43.502.328.85-.056.192-.198.374-.34.522C7.467 4.715 5.305 6.95 3.14 9.184c-.107.111-.24.196-.438.356"/>
</svg>
