<svg xmlns="http://www.w3.org/2000/svg" xmlns:xlink="http://www.w3.org/1999/xlink" width="24" height="19" viewBox="0 0 24 19">
    <defs>
        <path id="a" d="M.015.021h17.48v15.02H.015z"/>
    </defs>
    <g fill="none" fill-rule="evenodd">
        <path fill="#FFF" d="M0 9.367c1.738-1.44 3.474-2.882 5.215-4.318 1.798-1.482 3.603-2.954 5.4-4.436.995-.82 1.79-.819 2.794.012 1.083.896 2.172 1.786 3.358 2.76V.942c.001-.812.082-.89.923-.892.728-.001 1.456-.007 2.184.003.585.007.71.137.712.725.004 1.768-.011 3.536.016 5.304.004.237.146.536.326.694 1.007.883 2.045 1.731 3.072 2.591v.42l-.875.973c-.369.412-.56.427-1.027.044-1.993-1.635-3.982-3.275-5.973-4.912l-4.117-3.383-4.222 3.468c-1.964 1.615-3.925 3.232-5.89 4.845-.448.368-.646.353-1.023-.083C.574 10.393.29 10.035 0 9.683v-.316"/>
        <g transform="translate(3.2 3.958)">
            <mask id="b" fill="#fff">
                <use xlink:href="#a"/>
            </mask>
            <path fill="#FFF" d="M10.69 15.04V9.438H6.824v5.604h-.674c-1.646 0-3.293.002-4.94-.001-.829-.002-1.187-.343-1.19-1.152-.006-2.172-.007-4.345.008-6.517.001-.185.08-.434.217-.544C3.066 4.554 5.9 2.297 8.752.02c1.719 1.37 3.422 2.726 5.124 4.084 1.089.868 2.187 1.727 3.254 2.619.187.156.344.454.347.688.026 2.137.017 4.275.014 6.412-.001.89-.332 1.215-1.234 1.216-1.824.003-3.648 0-5.566 0" mask="url(#b)"/>
        </g>
    </g>
</svg>
