<svg xmlns="http://www.w3.org/2000/svg" xmlns:xlink="http://www.w3.org/1999/xlink" width="108" height="50" viewBox="0 0 108 50">
    <defs>
        <rect id="b" width="90" height="32" rx="15.5"/>
        <filter id="a" width="130%" height="184.4%" x="-15%" y="-42.2%" filterUnits="objectBoundingBox">
            <feOffset in="SourceAlpha" result="shadowOffsetOuter1"/>
            <feGaussianBlur in="shadowOffsetOuter1" result="shadowBlurOuter1" stdDeviation="4.5"/>
            <feColorMatrix in="shadowBlurOuter1" values="0 0 0 0 0.446727808 0 0 0 0 0.440590408 0 0 0 0 0.440590408 0 0 0 0.5 0"/>
        </filter>
    </defs>
    <g fill="none" fill-rule="evenodd">
        <g transform="translate(9 9)">
            <use fill="#000" filter="url(#a)" xlink:href="#b"/>
            <use fill="#FFF" xlink:href="#b"/>
        </g>
        <path fill="#BF3829" d="M24.5 9H54v32H24.5C15.94 41 9 34.06 9 25.5v-1C9 15.94 15.94 9 24.5 9z"/>
        <path fill="#FEFEFE" d="M33.311 34.348a.79.79 0 0 1-.79-.79.79.79 0 0 1 .79-.794h10.89c.44 0 .799.355.799.794 0 .435-.36.79-.8.79H33.312zm0-2.855a.793.793 0 0 1-.79-.794c0-.439.35-.79.79-.79h10.89c.44 0 .799.351.799.79a.8.8 0 0 1-.8.794H33.312zm0-4.271a.79.79 0 0 1-.79-.795.79.79 0 0 1 .79-.794h10.89c.44 0 .799.356.799.794 0 .44-.36.795-.8.795H33.312zm0-2.86a.786.786 0 0 1-.79-.785c0-.443.35-.799.79-.799h10.89c.44 0 .799.356.799.799 0 .434-.36.786-.8.786H33.312zm0-4.267a.795.795 0 0 1-.79-.802.79.79 0 0 1 .79-.79h10.89c.44 0 .799.355.799.79 0 .443-.36.802-.8.802H33.312zm-3.523 10.12h-3.834v3.836h3.834v-3.837zm-4.315-.954h4.796c.264 0 .477.21.477.473V34.524a.477.477 0 0 1-.477.476h-4.796a.473.473 0 0 1-.473-.476v-4.79a.47.47 0 0 1 .473-.473zm4.315-6.177h-3.834v3.832h3.834v-3.832zm-4.315-.953h4.796c.264 0 .477.213.477.472V27.393a.477.477 0 0 1-.477.476h-4.796a.473.473 0 0 1-.473-.476v-4.79c0-.26.21-.472.473-.472zm4.315-6.174h-3.834v3.833h3.834v-3.833zM25.473 15h4.796a.48.48 0 0 1 .477.476V20.262a.48.48 0 0 1-.477.477h-4.796a.476.476 0 0 1-.473-.477v-4.786c0-.259.21-.476.473-.476zm7.838 2.236a.79.79 0 0 1-.79-.794.79.79 0 0 1 .79-.794h10.89c.44 0 .799.355.799.794 0 .439-.36.794-.8.794H33.312z"/>
        <path fill="#DDC5C3" d="M78.398 27.536l-.01.005v-.005a4.737 4.737 0 0 1-3.383 1.421 4.777 4.777 0 0 1-3.398-1.421l-.033-.023a4.875 4.875 0 0 1-1.369-3.402c0-1.342.53-2.558 1.402-3.434a4.777 4.777 0 0 1 3.398-1.421c1.323 0 2.522.545 3.384 1.421a4.86 4.86 0 0 1 1.415 3.434 4.869 4.869 0 0 1-1.406 3.425m-3.393-9.338c-1.623 0-3.08.662-4.145 1.729a5.97 5.97 0 0 0-1.71 4.184c0 1.608.64 3.075 1.682 4.142l.028.033a5.812 5.812 0 0 0 4.145 1.733 5.78 5.78 0 0 0 4.13-1.733 5.928 5.928 0 0 0 1.711-4.175 5.95 5.95 0 0 0-1.71-4.184 5.795 5.795 0 0 0-4.131-1.729m6.814 10.61A8.312 8.312 0 0 1 78 31.883a.708.708 0 0 0-.304.205l-2.692 2.768-2.693-2.768a.894.894 0 0 0-.336-.219 8.224 8.224 0 0 1-3.79-3.061 8.395 8.395 0 0 1-1.43-4.697 8.35 8.35 0 0 1 2.412-5.899 8.187 8.187 0 0 1 5.837-2.441c2.277 0 4.338.932 5.823 2.441a8.343 8.343 0 0 1 2.425 5.9c0 1.742-.535 3.359-1.434 4.696m.253-11.85A9.937 9.937 0 0 0 75.005 14a9.907 9.907 0 0 0-7.073 2.959A10.151 10.151 0 0 0 65 24.11c0 2.106.636 4.068 1.738 5.694a10.051 10.051 0 0 0 4.458 3.648l3.177 3.271.01.014.008.01c.342.34.89.335 1.231-.01l3.19-3.285a10.128 10.128 0 0 0 4.45-3.648A10.151 10.151 0 0 0 85 24.111c0-2.796-1.12-5.321-2.928-7.152"/>
    </g>
</svg>
