<svg xmlns="http://www.w3.org/2000/svg" width="20" height="20" viewBox="0 0 20 20">
    <path fill="#DDC5C3" fill-rule="evenodd" d="M8.311 19.348a.79.79 0 0 1-.79-.79.79.79 0 0 1 .79-.794h10.89c.44 0 .799.355.799.794 0 .435-.36.79-.8.79H8.312zm0-2.855a.793.793 0 0 1-.79-.794c0-.439.35-.79.79-.79h10.89c.44 0 .799.351.799.79a.8.8 0 0 1-.8.794H8.312zm0-4.271a.79.79 0 0 1-.79-.795.79.79 0 0 1 .79-.794h10.89c.44 0 .799.356.799.794 0 .44-.36.795-.8.795H8.312zm0-2.86a.786.786 0 0 1-.79-.785c0-.443.35-.799.79-.799h10.89c.44 0 .799.356.799.799 0 .434-.36.786-.8.786H8.312zm0-4.267a.795.795 0 0 1-.79-.802.79.79 0 0 1 .79-.79h10.89c.44 0 .799.355.799.79 0 .443-.36.802-.8.802H8.312zm-3.523 10.12H.954v3.836h3.834v-3.837zM.473 14.26h4.796c.264 0 .477.21.477.473V19.524a.477.477 0 0 1-.477.476H.473A.473.473 0 0 1 0 19.524v-4.79a.47.47 0 0 1 .473-.473zm4.315-6.177H.954v3.832h3.834V8.084zM.473 7.13h4.796c.264 0 .477.213.477.472V12.393a.477.477 0 0 1-.477.476H.473A.473.473 0 0 1 0 12.393v-4.79c0-.26.21-.472.473-.472zM4.788.957H.954V4.79h3.834V.957zM.473 0h4.796a.48.48 0 0 1 .477.476V5.262a.48.48 0 0 1-.477.477H.473A.476.476 0 0 1 0 5.262V.476C0 .217.21 0 .473 0zM8.31 2.236a.79.79 0 0 1-.79-.794.79.79 0 0 1 .79-.794h10.89c.44 0 .799.355.799.794 0 .439-.36.794-.8.794H8.312z"/>
</svg>
