<svg xmlns="http://www.w3.org/2000/svg" width="20" height="23" viewBox="0 0 20 23">
    <path fill="#DDC5C3" fill-rule="evenodd" d="M13.398 13.536l-.01.005v-.005a4.737 4.737 0 0 1-3.383 1.421 4.777 4.777 0 0 1-3.398-1.421l-.033-.023a4.875 4.875 0 0 1-1.369-3.402c0-1.342.53-2.558 1.402-3.434a4.777 4.777 0 0 1 3.398-1.421c1.323 0 2.522.545 3.384 1.421a4.86 4.86 0 0 1 1.415 3.434 4.869 4.869 0 0 1-1.406 3.425m-3.393-9.338c-1.623 0-3.08.662-4.145 1.729a5.97 5.97 0 0 0-1.71 4.184c0 1.608.64 3.075 1.682 4.142l.028.033a5.812 5.812 0 0 0 4.145 1.733 5.78 5.78 0 0 0 4.13-1.733 5.928 5.928 0 0 0 1.711-4.175 5.95 5.95 0 0 0-1.71-4.184 5.795 5.795 0 0 0-4.131-1.729m6.814 10.61A8.312 8.312 0 0 1 13 17.883a.708.708 0 0 0-.304.205l-2.692 2.768-2.693-2.768a.894.894 0 0 0-.336-.219 8.224 8.224 0 0 1-3.79-3.061 8.395 8.395 0 0 1-1.43-4.697 8.35 8.35 0 0 1 2.412-5.899 8.187 8.187 0 0 1 5.837-2.441c2.277 0 4.338.932 5.823 2.441a8.343 8.343 0 0 1 2.425 5.9c0 1.742-.535 3.359-1.434 4.696m.253-11.85A9.937 9.937 0 0 0 10.005 0a9.907 9.907 0 0 0-7.073 2.959A10.151 10.151 0 0 0 0 10.11c0 2.106.636 4.068 1.738 5.694a10.051 10.051 0 0 0 4.458 3.648l3.177 3.271.01.014.008.01c.342.34.89.335 1.231-.01l3.19-3.285a10.128 10.128 0 0 0 4.45-3.648A10.151 10.151 0 0 0 20 10.111c0-2.796-1.12-5.321-2.928-7.152"/>
</svg>
