<svg xmlns="http://www.w3.org/2000/svg" width="44" height="44" viewBox="0 0 44 44">
    <path fill="#BF3829" fill-rule="evenodd" stroke="#BF3829" d="M24.486 22.535c-.215.182-.379.3-.518.442-1.88 1.926-3.758 3.852-5.628 5.788-.147.153-.314.377-.313.566.002.216.132.527.3.62.185.102.477.02.718-.016.08-.012.145-.13.215-.201l6.392-6.565c.46-.474.464-.791.01-1.258l-6.442-6.62c-.291-.299-.62-.371-.897-.2-.28.172-.381.443-.29.75.05.17.175.33.301.46 1.917 1.977 3.84 3.95 5.763 5.92.095.098.213.173.389.314"/>
</svg>
