<svg width="10" height="16" xmlns="http://www.w3.org/2000/svg">

 <g>
  <title>background</title>
  <rect fill="none" id="canvas_background" height="18" width="12" y="-1" x="-1"/>
 </g>
 <g>
  <title>Layer 1</title>
  <path id="svg_1" d="m7.03719,8.031071c-0.215,0.182 -0.379,0.3 -0.518,0.442c-1.88,1.926 -3.758,3.852 -5.628,5.788c-0.147,0.153 -0.314,0.377 -0.313,0.566c0.002,0.216 0.132,0.527 0.3,0.62c0.185,0.102 0.477,0.02 0.718,-0.016c0.08,-0.012 0.145,-0.13 0.215,-0.201l6.392,-6.565c0.46,-0.474 0.464,-0.791 0.01,-1.258l-6.442,-6.62c-0.291,-0.299 -0.62,-0.371 -0.897,-0.2c-0.28,0.172 -0.381,0.443 -0.29,0.75c0.05,0.17 0.175,0.33 0.301,0.46c1.917,1.977 3.84,3.95 5.763,5.92c0.095,0.098 0.213,0.173 0.389,0.314" stroke="#BF3829" fill-rule="evenodd" fill="#BF3829"/>
 </g>
</svg>