<svg xmlns="http://www.w3.org/2000/svg" xmlns:xlink="http://www.w3.org/1999/xlink" width="10" height="14" viewBox="0 0 10 14">
    <defs>
        <path id="a" d="M0 .292h9.704v12.724H0z"/>
    </defs>
    <g fill="none" fill-rule="evenodd">
        <g transform="translate(0 .025)">
            <mask id="b" fill="#fff">
                <use xlink:href="#a"/>
            </mask>
            <path fill="#BF3829" d="M4.85 8.244c1.781.002 3.231-1.42 3.236-3.172.005-1.758-1.443-3.188-3.23-3.19-1.781 0-3.23 1.42-3.234 3.172-.005 1.759 1.443 3.189 3.229 3.19M4.525.292h.657c.028.007.056.017.085.02.486.036.952.152 1.405.328 2.12.823 3.386 3.105 2.945 5.299-.173.86-.502 1.663-.916 2.434-.82 1.528-1.873 2.894-3.047 4.174-.185.2-.373.392-.649.469h-.303a1.252 1.252 0 0 1-.555-.368 23.203 23.203 0 0 1-1.936-2.354C1.464 9.248.801 8.157.368 6.944.056 6.067-.11 5.17.082 4.247.494 2.26 1.704.99 3.684.438c.272-.076.56-.099.841-.146" mask="url(#b)"/>
        </g>
        <path fill="#BF3829" d="M6.47 5.085A1.606 1.606 0 0 1 4.86 6.68c-.896.003-1.623-.711-1.622-1.593 0-.876.725-1.587 1.615-1.588.89 0 1.616.712 1.617 1.587"/>
    </g>
</svg>
